<svg xmlns="http://www.w3.org/2000/svg" xml:space="preserve" width="128" fill="rgb(249 117 22)" height="128" style="enable-background:new 0 0 24 24" viewBox="0 0 24 24"><path d="M20 12c-1.1 0-2-.9-2-2s.9-2 2-2 2 .9 2 2-.9 2-2 2zm0-3c-.6 0-1 .4-1 1s.4 1 1 1 1-.4 1-1-.4-1-1-1zM23.5 17c-.3 0-.5-.2-.5-.5v-1c0-.8-.7-1.5-1.5-1.5h-3c-.3 0-.5-.2-.5-.5s.2-.5.5-.5h3c1.4 0 2.5 1.1 2.5 2.5v1c0 .3-.2.5-.5.5zM4 12c-1.1 0-2-.9-2-2s.9-2 2-2 2 .9 2 2-.9 2-2 2zm0-3c-.6 0-1 .4-1 1s.4 1 1 1 1-.4 1-1-.4-1-1-1zM.5 17c-.3 0-.5-.2-.5-.5v-1C0 14.1 1.1 13 2.5 13h3c.3 0 .5.2.5.5s-.2.5-.5.5h-3c-.8 0-1.5.7-1.5 1.5v1c0 .3-.2.5-.5.5zM12 12.5c-1.7 0-3-1.3-3-3s1.3-3 3-3 3 1.3 3 3-1.3 3-3 3zm0-5c-1.1 0-2 .9-2 2s.9 2 2 2 2-.9 2-2-.9-2-2-2zM17 19c-.3 0-.5-.2-.5-.5v-2c0-.8-.7-1.5-1.5-1.5H9c-.8 0-1.5.7-1.5 1.5v2c0 .3-.2.5-.5.5s-.5-.2-.5-.5v-2C6.5 15.1 7.6 14 9 14h6c1.4 0 2.5 1.1 2.5 2.5v2c0 .3-.2.5-.5.5z"/></svg>