<svg xmlns="http://www.w3.org/2000/svg" width="128" height="128" fill="rgb(249 117 22)" viewBox="0 0 24 24"><path d="M17 24c-3.394 0-7-1.052-7-3a.5.5 0 0 1 1 0c0 .835 2.282 2 6 2s6-1.165 6-2a.5.5 0 0 1 1 0c0 1.948-3.606 3-7 3z"/><path d="M17 21c-3.394 0-7-1.052-7-3a.5.5 0 0 1 1 0c0 .835 2.282 2 6 2s6-1.165 6-2a.5.5 0 0 1 1 0c0 1.948-3.606 3-7 3z"/><path d="M17 18c-3.394 0-7-1.052-7-3s3.606-3 7-3 7 1.052 7 3-3.606 3-7 3zm0-5c-3.718 0-6 1.165-6 2s2.282 2 6 2 6-1.165 6-2-2.282-2-6-2z"/><path d="M23.5 21.5a.5.5 0 0 1-.5-.5v-6a.5.5 0 0 1 1 0v6a.5.5 0 0 1-.5.5zM10.5 21.5a.5.5 0 0 1-.5-.5v-6a.5.5 0 0 1 1 0v6a.5.5 0 0 1-.5.5zM7 12c-3.394 0-7-1.052-7-3a.5.5 0 0 1 1 0c0 .835 2.282 2 6 2s6-1.165 6-2a.5.5 0 0 1 1 0c0 1.948-3.606 3-7 3z"/><path d="M7 9C3.606 9 0 7.948 0 6a.5.5 0 0 1 1 0c0 .835 2.282 2 6 2s6-1.165 6-2a.5.5 0 0 1 1 0c0 1.948-3.606 3-7 3zM7 18c-3.394 0-7-1.052-7-3a.5.5 0 0 1 1 0c0 .835 2.282 2 6 2 .544 0 1.018-.022 1.447-.067a.5.5 0 0 1 .106.994C8.087 17.977 7.579 18 7 18zM7 21c-3.394 0-7-1.052-7-3a.5.5 0 0 1 1 0c0 .835 2.282 2 6 2 .544 0 1.018-.022 1.447-.067a.5.5 0 0 1 .106.994C8.087 20.977 7.579 21 7 21zM7 15c-3.394 0-7-1.052-7-3a.5.5 0 0 1 1 0c0 .835 2.282 2 6 2 .544 0 1.018-.022 1.447-.067a.5.5 0 1 1 .106.994C8.087 14.977 7.579 15 7 15z"/><path d="M7 6C3.606 6 0 4.948 0 3s3.606-3 7-3 7 1.052 7 3-3.606 3-7 3zm0-5C3.282 1 1 2.165 1 3s2.282 2 6 2 6-1.165 6-2-2.282-2-6-2z"/><path d="M.5 18.5A.5.5 0 0 1 0 18V3a.5.5 0 0 1 1 0v15a.5.5 0 0 1-.5.5zM13.5 9.5A.5.5 0 0 1 13 9V3a.5.5 0 0 1 1 0v6a.5.5 0 0 1-.5.5z"/></svg>