<svg xmlns="http://www.w3.org/2000/svg" width="128" height="128" fill="rgb(249 117 22)" viewBox="0 0 24 24"><path d="M11.987 22a.451.451 0 0 1-.103-.011l-9.493-2a.5.5 0 0 1-.397-.489v-9a.5.5 0 0 1 1 0v8.594l8.493 1.79V2.587a.49.49 0 0 1 .137-.431.509.509 0 0 1 .55-.113.498.498 0 0 1 .313.457v19a.5.5 0 0 1-.5.5z"/><path d="M12.007 22a.5.5 0 0 1-.5-.5V2.75a.5.5 0 0 1 1 0v18.134L21 19.094V10.5a.5.5 0 0 1 1 0v9a.5.5 0 0 1-.397.489l-9.493 2a.451.451 0 0 1-.103.011z"/><path d="M23.5 11h-8.002a.5.5 0 0 1-.458-.3l-3.495-8a.5.5 0 0 1 .561-.69l9.497 2a.5.5 0 0 1 .371.331l2 6A.499.499 0 0 1 23.5 11zm-7.675-1h6.981l-1.69-5.07-8.266-1.741z"/><path d="M8.502 11H.5a.499.499 0 0 1-.474-.659l2-6a.5.5 0 0 1 .371-.331l9.497-2a.498.498 0 0 1 .561.69l-3.495 8a.5.5 0 0 1-.458.3zm-7.308-1h6.981l2.975-6.811L2.884 4.93z"/></svg>